HIERARCHY
ROOT Hips
{
	OFFSET 0.000000 0.000000 0.000000
	CHANNELS 6 Xposition Yposition Zposition Zrotation Yrotation Xrotation 
	JOINT LHipJoint
	{
		OFFSET 0.000000 0.000000 0.000000
		CHANNELS 3 Zrotation Yrotation Xrotation
		JOINT LeftUpLeg
		{
			OFFSET 1.363060 -1.794630 0.839290
			CHANNELS 3 Zrotation Yrotation Xrotation
			JOINT LeftLeg
			{
				OFFSET 2.448110 -6.726130 0.000000
				CHANNELS 3 Zrotation Yrotation Xrotation
				JOINT LeftFoot
				{
					OFFSET 2.562200 -7.039590 0.000000
					CHANNELS 3 Zrotation Yrotation Xrotation
					JOINT LeftToeBase
					{
						OFFSET 0.157640 -0.433110 2.322550
						CHANNELS 3 Zrotation Yrotation Xrotation
						End Site
						{
							OFFSET 0.000000 0.000000 0.000000
						}
					}
				}
			}
		}
	}
	JOINT RHipJoint
	{
		OFFSET 0.000000 0.000000 0.000000
		CHANNELS 3 Zrotation Yrotation Xrotation
		JOINT RightUpLeg
		{
			OFFSET -1.305520 -1.794630 0.839290
			CHANNELS 3 Zrotation Yrotation Xrotation
			JOINT RightLeg
			{
				OFFSET -2.542530 -6.985550 0.000000
				CHANNELS 3 Zrotation Yrotation Xrotation
				JOINT RightFoot
				{
					OFFSET -2.568260 -7.056230 0.000000
					CHANNELS 3 Zrotation Yrotation Xrotation
					JOINT RightToeBase
					{
						OFFSET -0.164730 -0.452590 2.363150
						CHANNELS 3 Zrotation Yrotation Xrotation
						End Site
						{
							OFFSET 0.000000 0.000000 0.000000
						}
					}
				}
			}
		}
	}
	JOINT LowerBack
	{
		OFFSET 0.000000 0.000000 0.000000
		CHANNELS 3 Zrotation Yrotation Xrotation
		JOINT Spine
		{
			OFFSET 0.028270 2.035590 -0.193380
			CHANNELS 3 Zrotation Yrotation Xrotation
			JOINT Spine1
			{
				OFFSET 0.056720 2.048850 -0.042750
				CHANNELS 3 Zrotation Yrotation Xrotation
				JOINT Neck
				{
					OFFSET 0.000000 0.000000 0.000000
					CHANNELS 3 Zrotation Yrotation Xrotation
					JOINT Neck1
					{
						OFFSET -0.054170 1.746240 0.172020
						CHANNELS 3 Zrotation Yrotation Xrotation
						JOINT Head
						{
							OFFSET 0.104070 1.761360 -0.123970
							CHANNELS 3 Zrotation Yrotation Xrotation
							End Site
							{
								OFFSET 0.000000 0.000000 0.000000
							}
						}
					}
				}
				JOINT LeftShoulder
				{
					OFFSET 0.000000 0.000000 0.000000
					CHANNELS 3 Zrotation Yrotation Xrotation
					JOINT LeftArm
					{
						OFFSET 3.362410 1.200890 -0.311210
						CHANNELS 3 Zrotation Yrotation Xrotation
						JOINT LeftForeArm
						{
							OFFSET 4.983000 -0.000000 -0.000000
							CHANNELS 3 Zrotation Yrotation Xrotation
							JOINT LeftHand
							{
								OFFSET 3.483560 -0.000000 -0.000000
								CHANNELS 3 Zrotation Yrotation Xrotation
								JOINT LeftFingerBase
								{
									OFFSET 0.000000 0.000000 0.000000
									CHANNELS 3 Zrotation Yrotation Xrotation
									JOINT LeftHandIndex1
									{
										OFFSET 0.715260 -0.000000 -0.000000
										CHANNELS 3 Zrotation Yrotation Xrotation
										End Site
										{
											OFFSET 0.000000 0.000000 0.000000
										}
									}
								}
								JOINT LThumb
								{
									OFFSET 0.000000 0.000000 0.000000
									CHANNELS 3 Zrotation Yrotation Xrotation
									End Site
									{
										OFFSET 0.000000 0.000000 0.000000
									}
								}
							}
						}
					}
				}
				JOINT RightShoulder
				{
					OFFSET 0.000000 0.000000 0.000000
					CHANNELS 3 Zrotation Yrotation Xrotation
					JOINT RightArm
					{
						OFFSET -3.136600 1.374050 -0.404650
						CHANNELS 3 Zrotation Yrotation Xrotation
						JOINT RightForeArm
						{
							OFFSET -5.241900 -0.000000 -0.000000
							CHANNELS 3 Zrotation Yrotation Xrotation
							JOINT RightHand
							{
								OFFSET -3.444170 -0.000000 -0.000000
								CHANNELS 3 Zrotation Yrotation Xrotation
								JOINT RightFingerBase
								{
									OFFSET 0.000000 0.000000 0.000000
									CHANNELS 3 Zrotation Yrotation Xrotation
									JOINT RightHandIndex1
									{
										OFFSET -0.622530 -0.000000 -0.000000
										CHANNELS 3 Zrotation Yrotation Xrotation
										End Site
										{
											OFFSET 0.000000 0.000000 0.000000
										}
									}
								}
								JOINT RThumb
								{
									OFFSET 0.000000 0.000000 0.000000
									CHANNELS 3 Zrotation Yrotation Xrotation
									End Site
									{
										OFFSET 0.000000 0.000000 0.000000
									}
								}
							}
						}
					}
				}
			}
		}
	}
}
MOTION
Frames: 9
Frame Time: 0.008333
-0.874390 17.741519 5.959919 -177.479305 -2.682193 -170.680491 -1.965632 2.408458 2.860586 -14.234220 -0.842488 -28.618924 10.611042 16.611190 60.212126 -0.167684 2.534197 -3.591812 0.694100 -5.325900 -14.840600 -0.019349 -2.667596 2.239998 27.117699 16.296384 -14.616345 -4.052643 -8.309755 29.120779 -0.461879 2.125539 -11.544647 -0.293700 -3.485100 9.632400 1.066206 -2.659790 -0.873663 9.184608 -3.769527 7.215483 -1.674543 -1.908013 -1.396082 -10.171065 -9.730985 -9.391458 7.319137 -12.294957 16.219035 2.329800 -5.510400 7.899900 -4.397625 -1.793603 -0.413573 -90.650859 2.534320 7.415417 14.800604 -15.219074 -1.781845 -0.396660 -0.553613 14.190119 16.876912 9.096077 2.986300 -7.125000 0.000000 0.000000 -8.635600 40.023500 1.068500 1.122263 1.693751 0.016529 90.621920 -6.405896 -25.874717 -20.738980 29.580607 -4.874219 0.498649 0.142492 -44.430663 -41.345409 27.270691 -22.361000 7.125000 0.000000 0.000000 -6.643300 4.615400 -7.203300 
-0.894756 17.723843 5.806406 -177.439850 -2.252638 -170.571158 -1.994871 2.395630 2.845120 -13.990382 -1.357707 -29.616908 10.471006 16.519187 59.748930 -0.145114 2.504577 -4.678630 0.826200 -5.799400 -16.203400 -0.022393 -2.652855 2.224705 27.329235 15.877415 -14.268660 -4.075440 -8.363915 29.276263 -0.549609 2.530615 -12.407592 -0.526600 -4.650400 12.914000 1.228944 -2.524502 -0.811639 8.988218 -3.576833 7.146026 -1.833899 -1.810851 -1.486774 -10.243079 -9.591213 -9.170054 7.422377 -12.120218 15.976719 2.393900 -5.437700 7.787100 -4.398479 -1.753350 -0.422657 -90.666283 3.080873 6.323763 14.607457 -14.975509 -1.699920 -0.459368 -0.588118 14.667909 17.282138 10.499573 3.521400 -7.125000 0.000000 0.000000 -8.510700 41.562000 0.727600 1.151956 1.658431 0.012670 91.020789 -7.101472 -26.612584 -20.765945 29.615835 -4.889488 0.500500 0.142995 -44.766730 -41.104601 27.334320 -22.237200 7.125000 0.000000 0.000000 -6.491200 4.602800 -7.035000 
-0.914258 17.712027 5.653085 -177.223248 -1.687038 -170.426889 -2.022383 2.381276 2.824790 -13.567647 -1.706747 -30.695667 10.274362 16.407813 59.103308 -0.131863 2.557852 -5.515133 1.227400 -7.026300 -19.793400 -0.029771 -2.638775 2.212019 27.694205 15.743039 -13.903842 -4.108425 -8.430748 29.496855 -0.586594 2.476468 -12.846302 -0.449600 -4.301900 11.927500 1.507388 -2.297854 -0.719581 8.789708 -3.260793 7.045145 -2.045623 -1.651998 -1.615611 -10.028493 -9.452194 -8.763072 7.423164 -11.988378 15.526861 2.390300 -5.386100 7.562700 -4.386212 -1.706323 -0.431963 -90.591929 3.724027 5.279809 14.540749 -14.933179 -1.664299 -0.495253 -0.631587 14.424890 17.477451 11.584434 3.923800 -7.125000 0.000000 0.000000 -8.540400 42.753700 0.477200 1.176030 1.616795 0.005129 91.541072 -7.728832 -27.324920 -20.800605 29.664949 -4.910860 0.503132 0.146502 -44.832504 -41.077950 27.087852 -22.055000 7.125000 0.000000 0.000000 -6.539100 4.310000 -7.056700 
-0.932606 17.694255 5.507257 -177.190601 -1.220249 -170.401912 -2.047715 2.369749 2.819148 -13.321135 -2.036392 -31.569865 10.013974 16.244636 58.226978 -0.075594 2.261618 -6.366714 1.262500 -7.122500 -20.078700 -0.031715 -2.623665 2.206353 27.879903 15.685943 -13.387993 -4.135971 -8.495816 29.698500 -0.568798 1.985445 -12.870880 -0.288700 -3.455300 9.549000 1.498184 -2.226665 -0.491571 8.701817 -3.167999 7.171109 -2.060124 -1.600122 -1.723983 -9.885115 -9.242214 -8.861770 7.264377 -11.707765 15.068804 2.346300 -5.285500 7.409700 -4.394248 -1.679005 -0.443997 -90.695083 3.993203 3.761216 14.437332 -14.842082 -1.615972 -0.513411 -0.651839 14.114897 17.499764 11.994152 4.067700 -7.125000 0.000000 0.000000 -8.596000 43.202500 0.384400 1.178480 1.589876 -0.002986 91.726997 -8.115369 -27.588346 -20.837718 29.711363 -4.929651 0.505680 0.155991 -45.107100 -41.781733 26.765081 -22.330500 7.125000 0.000000 0.000000 -7.020700 4.199600 -7.571400 
-0.950763 17.684744 5.362006 -177.027233 -0.785443 -170.272295 -2.068223 2.360900 2.807934 -12.853204 -2.476074 -32.458394 9.698139 16.046864 57.155787 -0.019243 1.953915 -7.053357 0.935600 -6.161300 -17.253100 -0.021224 -2.607245 2.207175 28.160634 15.678809 -12.983954 -4.153877 -8.533389 29.825028 -0.588225 1.847112 -13.153023 -0.320900 -3.641200 10.069500 1.610147 -2.258135 -0.356442 8.761660 -3.220184 7.303809 -2.112663 -1.622615 -1.765568 -9.986138 -8.986054 -9.263034 7.229394 -11.325694 14.735150 2.368400 -5.133700 7.358300 -4.413098 -1.658379 -0.455413 -90.920406 4.136286 2.133029 14.334511 -14.764216 -1.565252 -0.557274 -0.702820 13.883124 17.634195 13.105652 4.476100 -7.125000 0.000000 0.000000 -8.702700 44.425500 0.124400 1.168230 1.573470 -0.004565 91.663822 -8.366654 -27.660319 -20.733456 29.573348 -4.874463 0.508024 0.157106 -45.311710 -42.172282 26.913112 -22.712400 7.125000 0.000000 0.000000 -7.204400 4.524400 -7.810200 
-0.966325 17.693582 5.212816 -176.769277 -0.307218 -170.045525 -2.095749 2.348636 2.787138 -12.211893 -2.965421 -33.345767 9.329443 15.814927 55.896906 0.017423 1.837914 -7.699906 0.678000 -5.264800 -14.665300 -0.010122 -2.591380 2.208068 28.506452 15.703798 -12.648460 -4.159916 -8.547880 29.881044 -0.652469 1.911701 -13.819514 -0.361300 -3.861400 10.687000 1.845959 -2.243147 -0.294719 8.755735 -3.203761 7.350472 -2.250533 -1.613085 -1.808950 -9.864438 -8.754749 -9.668896 7.048589 -10.988762 14.566204 2.311900 -4.991400 7.338600 -4.426641 -1.632990 -0.463552 -91.077317 4.375041 0.788278 14.254217 -14.716770 -1.524556 -0.598873 -0.773648 13.614448 17.612006 14.526500 4.945000 -7.125000 0.000000 0.000000 -9.058700 45.964900 -0.217500 1.165080 1.552376 -0.004999 91.703967 -8.566286 -27.996167 -20.560481 29.359607 -4.789104 0.509151 0.150287 -45.292343 -41.732956 27.259508 -22.640100 7.125000 0.000000 0.000000 -6.867100 4.762700 -7.465600 
-0.981504 17.697617 5.063049 -176.790043 0.198486 -169.857544 -2.139698 2.331340 2.769050 -11.908973 -3.466592 -34.071245 8.923000 15.531100 54.473725 0.052961 1.802285 -8.464205 0.583400 -4.890800 -13.597500 -0.008628 -2.580393 2.206179 28.536502 15.636409 -12.253606 -4.147445 -8.539449 29.831933 -0.694387 1.928841 -14.256686 -0.364900 -3.880400 10.740500 1.814520 -2.227728 -0.173721 8.576703 -3.179727 7.410237 -2.278627 -1.597615 -1.892216 -9.498802 -8.518700 -10.142015 6.637076 -10.652193 14.481467 2.154500 -4.850400 7.331600 -4.440143 -1.606670 -0.470932 -91.178096 4.622147 -0.300540 14.098978 -14.543507 -1.463790 -0.651092 -0.844708 13.378761 17.660822 16.063736 5.472600 -7.125000 0.000000 0.000000 -9.410400 47.631200 -0.616100 1.174591 1.527264 -0.007647 91.790408 -8.742410 -28.300332 -20.467283 29.247815 -4.743293 0.513557 0.148100 -45.392728 -41.875074 27.591848 -22.972900 7.125000 0.000000 0.000000 -6.862900 5.207000 -7.509400 
-1.000813 17.687530 4.920872 -176.829165 0.750861 -169.676122 -2.191679 2.310926 2.746249 -11.663476 -3.959076 -34.760069 8.489716 15.211643 52.930005 0.060008 1.943468 -9.018100 0.594100 -4.934400 -13.721600 -0.015039 -2.569296 2.197220 28.497845 15.609593 -11.756229 -4.108175 -8.487624 29.628323 -0.714797 1.872665 -14.497450 -0.367500 -3.894300 10.779400 1.808679 -2.404295 0.065513 8.321500 -2.966564 7.384267 -2.345601 -1.304560 -2.086117 -9.267411 -8.268566 -10.110255 6.477470 -10.339754 13.990062 2.105200 -4.726900 7.143000 -4.441714 -1.566457 -0.480433 -91.196592 5.045253 -0.724385 13.997220 -14.417105 -1.431707 -0.675919 -0.850640 12.788344 18.074838 16.196621 5.660300 -7.125000 0.000000 0.000000 -9.028600 47.835500 -0.636500 1.188847 1.493179 -0.014206 91.889252 -8.951851 -28.545078 -20.307600 29.046267 -4.664924 0.518622 0.148870 -45.138957 -42.428502 27.525524 -23.331300 7.125000 0.000000 0.000000 -7.191900 5.348500 -7.890900 
-1.022044 17.688875 4.780808 -176.632031 1.248206 -169.564167 -2.232300 2.296735 2.724738 -11.130288 -4.408400 -35.328158 8.010010 14.856741 51.210637 0.016116 2.431138 -9.418035 0.695100 -5.329800 -14.851600 -0.014512 -2.550842 2.186531 28.713298 15.625642 -11.045239 -4.043818 -8.385899 29.270754 -0.684523 1.696290 -14.260413 -0.328000 -3.680800 10.180300 2.004056 -2.271804 0.243201 8.209413 -2.785077 7.515264 -2.472313 -1.205521 -2.159383 -9.133430 -8.053066 -10.145565 6.378057 -10.064389 13.403322 2.079800 -4.624900 6.954000 -4.422824 -1.533391 -0.494373 -91.276944 5.490012 -0.665945 14.138202 -14.635366 -1.483944 -0.654273 -0.795014 11.511030 18.796507 14.605384 5.348500 -7.125000 0.000000 0.000000 -7.909700 46.224000 -0.240400 1.185743 1.458557 -0.026143 91.931371 -8.864763 -28.889042 -20.009116 28.678435 -4.523445 0.520303 0.142602 -44.513271 -42.236760 27.404721 -23.109600 7.125000 0.000000 0.000000 -7.114800 5.134900 -7.781000 
